<svg
  xmlns="http://www.w3.org/2000/svg"
  viewBox="0 0 128 16"
  data-supported-dps="64x8"
  width="64"
  height="8"
  focusable="false"
>
  <path
    d="M0 15.696h2.784v-5.76H5.28c3.36 0 5.952-1.608 5.952-5.088C11.232 1.2 8.712 0 5.28 0H0v15.696zm2.784-7.992V2.232H5.04c2.28 0 3.456.648 3.456 2.616 0 1.92-1.104 2.856-3.456 2.856H2.784zm18.112-5.472h2.208c2.16 0 3.312.624 3.312 2.424 0 1.776-1.152 2.688-3.312 2.688h-2.208V2.232zm8.88 13.464l-3.744-6.552c1.896-.648 3.144-2.088 3.144-4.488 0-3.504-2.52-4.656-5.784-4.656h-5.28v15.696h2.784V9.552h2.376l3.384 6.144h3.12zm6.64 0h9.672v-2.352H39.2V8.712h5.64V6.36H39.2V2.352h6.648V0h-9.432v15.696zm16.816 0h2.544V8.52c0-1.464-.216-3.552-.336-4.992h.096l1.248 3.576 2.712 7.128h1.272l2.712-7.128 1.272-3.576h.096c-.144 1.44-.36 3.528-.36 4.992v7.176h2.616V0h-3.072l-2.76 7.728-1.032 2.976h-.096l-1.032-2.976L56.28 0h-3.048v15.696zm21.808 0h2.784V0H75.04v15.696zm10.6-6.888c0 5.16 2.328 7.176 5.976 7.176 3.624 0 5.928-2.016 5.928-7.176V0h-2.688v9.024c0 3.408-1.32 4.536-3.24 4.536-1.896 0-3.192-1.128-3.192-4.536V0H85.64v8.808zm19.744 6.888h2.544V8.52c0-1.464-.216-3.552-.336-4.992h.096l1.248 3.576 2.712 7.128h1.272l2.712-7.128 1.272-3.576H117c-.144 1.44-.36 3.528-.36 4.992v7.176h2.616V0h-3.072l-2.76 7.728-1.032 2.976h-.096l-1.032-2.976L108.432 0h-3.048v15.696z"
    fill="#fff"
    opacity=".85"
  ></path>
</svg>